<mxfile host="app.diagrams.net" modified="2021-09-22T16:59:01.450Z" agent="5.0 (Windows NT 10.0; Win64; x64) AppleWebKit/537.36 (KHTML, like Gecko) Chrome/93.0.4577.82 Safari/537.36 Edg/93.0.961.52" etag="4LFwQYXLMd3ZetuEsHgz" version="15.2.9" type="github">
  <diagram id="T8TC4MAQD_PDJFBQ0sH-" name="Page-1">
    <mxGraphModel dx="1157" dy="643" grid="1" gridSize="10" guides="1" tooltips="1" connect="0" arrows="1" fold="1" page="1" pageScale="1" pageWidth="850" pageHeight="1100" math="0" shadow="0">
      <root>
        <mxCell id="0" />
        <mxCell id="1" parent="0" />
        <mxCell id="yM-iLHwna3-0Nd7lgm04-1" value="pelanggan" style="shape=umlActor;verticalLabelPosition=bottom;verticalAlign=top;html=1;outlineConnect=0;" vertex="1" parent="1">
          <mxGeometry x="20" y="60" width="30" height="60" as="geometry" />
        </mxCell>
        <mxCell id="yM-iLHwna3-0Nd7lgm04-2" value="admin" style="shape=umlActor;verticalLabelPosition=bottom;verticalAlign=top;html=1;outlineConnect=0;" vertex="1" parent="1">
          <mxGeometry x="810" y="55" width="30" height="60" as="geometry" />
        </mxCell>
        <mxCell id="yM-iLHwna3-0Nd7lgm04-3" value="pemilik" style="shape=umlActor;verticalLabelPosition=bottom;verticalAlign=top;html=1;outlineConnect=0;" vertex="1" parent="1">
          <mxGeometry x="810" y="620" width="30" height="60" as="geometry" />
        </mxCell>
        <mxCell id="yM-iLHwna3-0Nd7lgm04-5" value="mendaftar" style="ellipse;whiteSpace=wrap;html=1;" vertex="1" parent="1">
          <mxGeometry x="330" y="55" width="140" height="70" as="geometry" />
        </mxCell>
        <mxCell id="yM-iLHwna3-0Nd7lgm04-6" value="pasang baru" style="ellipse;whiteSpace=wrap;html=1;" vertex="1" parent="1">
          <mxGeometry x="330" y="130" width="140" height="70" as="geometry" />
        </mxCell>
        <mxCell id="yM-iLHwna3-0Nd7lgm04-7" value="langganan" style="ellipse;whiteSpace=wrap;html=1;" vertex="1" parent="1">
          <mxGeometry x="330" y="210" width="140" height="70" as="geometry" />
        </mxCell>
        <mxCell id="yM-iLHwna3-0Nd7lgm04-17" value="" style="endArrow=none;html=1;entryX=0;entryY=0.5;entryDx=0;entryDy=0;" edge="1" parent="1" source="yM-iLHwna3-0Nd7lgm04-1" target="yM-iLHwna3-0Nd7lgm04-5">
          <mxGeometry width="50" height="50" relative="1" as="geometry">
            <mxPoint x="110" y="150" as="sourcePoint" />
            <mxPoint x="170" y="80" as="targetPoint" />
          </mxGeometry>
        </mxCell>
        <mxCell id="yM-iLHwna3-0Nd7lgm04-24" value="" style="endArrow=none;html=1;entryX=-0.007;entryY=0.5;entryDx=0;entryDy=0;entryPerimeter=0;" edge="1" parent="1" source="yM-iLHwna3-0Nd7lgm04-1" target="yM-iLHwna3-0Nd7lgm04-6">
          <mxGeometry width="50" height="50" relative="1" as="geometry">
            <mxPoint x="220" y="190" as="sourcePoint" />
            <mxPoint x="200" y="135.23809523809518" as="targetPoint" />
          </mxGeometry>
        </mxCell>
        <mxCell id="yM-iLHwna3-0Nd7lgm04-25" value="" style="endArrow=none;html=1;entryX=0.057;entryY=0.286;entryDx=0;entryDy=0;entryPerimeter=0;" edge="1" parent="1" source="yM-iLHwna3-0Nd7lgm04-1" target="yM-iLHwna3-0Nd7lgm04-7">
          <mxGeometry width="50" height="50" relative="1" as="geometry">
            <mxPoint x="130" y="109.9973871600785" as="sourcePoint" />
            <mxPoint x="329.02" y="189.04" as="targetPoint" />
          </mxGeometry>
        </mxCell>
        <mxCell id="yM-iLHwna3-0Nd7lgm04-26" value="teknisi" style="shape=umlActor;verticalLabelPosition=bottom;verticalAlign=top;html=1;outlineConnect=0;fillColor=none;" vertex="1" parent="1">
          <mxGeometry x="20" y="620" width="30" height="60" as="geometry" />
        </mxCell>
        <mxCell id="yM-iLHwna3-0Nd7lgm04-27" value="" style="endArrow=none;html=1;entryX=0;entryY=0.6;entryDx=0;entryDy=0;entryPerimeter=0;" edge="1" parent="1" source="yM-iLHwna3-0Nd7lgm04-26" target="yM-iLHwna3-0Nd7lgm04-6">
          <mxGeometry width="50" height="50" relative="1" as="geometry">
            <mxPoint x="150" y="440" as="sourcePoint" />
            <mxPoint x="200" y="390" as="targetPoint" />
          </mxGeometry>
        </mxCell>
        <mxCell id="yM-iLHwna3-0Nd7lgm04-28" value="perbaikan" style="ellipse;whiteSpace=wrap;html=1;" vertex="1" parent="1">
          <mxGeometry x="330" y="290" width="140" height="70" as="geometry" />
        </mxCell>
        <mxCell id="yM-iLHwna3-0Nd7lgm04-29" value="" style="endArrow=none;html=1;entryX=-0.007;entryY=0.586;entryDx=0;entryDy=0;entryPerimeter=0;" edge="1" parent="1" source="yM-iLHwna3-0Nd7lgm04-26" target="yM-iLHwna3-0Nd7lgm04-28">
          <mxGeometry width="50" height="50" relative="1" as="geometry">
            <mxPoint x="170" y="470" as="sourcePoint" />
            <mxPoint x="220" y="420" as="targetPoint" />
          </mxGeometry>
        </mxCell>
        <mxCell id="yM-iLHwna3-0Nd7lgm04-30" value="service/layanan" style="ellipse;whiteSpace=wrap;html=1;" vertex="1" parent="1">
          <mxGeometry x="331" y="370" width="140" height="70" as="geometry" />
        </mxCell>
        <mxCell id="yM-iLHwna3-0Nd7lgm04-31" value="" style="endArrow=none;html=1;entryX=0.036;entryY=0.271;entryDx=0;entryDy=0;entryPerimeter=0;" edge="1" parent="1" source="yM-iLHwna3-0Nd7lgm04-1" target="yM-iLHwna3-0Nd7lgm04-30">
          <mxGeometry width="50" height="50" relative="1" as="geometry">
            <mxPoint x="180" y="250" as="sourcePoint" />
            <mxPoint x="230" y="200" as="targetPoint" />
          </mxGeometry>
        </mxCell>
        <mxCell id="yM-iLHwna3-0Nd7lgm04-33" value="beli inventory" style="ellipse;whiteSpace=wrap;html=1;" vertex="1" parent="1">
          <mxGeometry x="331" y="450" width="140" height="70" as="geometry" />
        </mxCell>
        <mxCell id="yM-iLHwna3-0Nd7lgm04-34" value="" style="endArrow=none;html=1;exitX=0.957;exitY=0.314;exitDx=0;exitDy=0;exitPerimeter=0;" edge="1" parent="1" source="yM-iLHwna3-0Nd7lgm04-33" target="yM-iLHwna3-0Nd7lgm04-2">
          <mxGeometry width="50" height="50" relative="1" as="geometry">
            <mxPoint x="520" y="470" as="sourcePoint" />
            <mxPoint x="570" y="420" as="targetPoint" />
          </mxGeometry>
        </mxCell>
        <mxCell id="yM-iLHwna3-0Nd7lgm04-35" value="pakai inventory" style="ellipse;whiteSpace=wrap;html=1;" vertex="1" parent="1">
          <mxGeometry x="330" y="530" width="140" height="70" as="geometry" />
        </mxCell>
        <mxCell id="yM-iLHwna3-0Nd7lgm04-36" value="" style="endArrow=none;html=1;entryX=-0.007;entryY=0.529;entryDx=0;entryDy=0;entryPerimeter=0;" edge="1" parent="1" source="yM-iLHwna3-0Nd7lgm04-26" target="yM-iLHwna3-0Nd7lgm04-35">
          <mxGeometry width="50" height="50" relative="1" as="geometry">
            <mxPoint x="140" y="650" as="sourcePoint" />
            <mxPoint x="190" y="600" as="targetPoint" />
          </mxGeometry>
        </mxCell>
        <mxCell id="yM-iLHwna3-0Nd7lgm04-37" value="gaji karyawan" style="ellipse;whiteSpace=wrap;html=1;" vertex="1" parent="1">
          <mxGeometry x="331" y="610" width="140" height="70" as="geometry" />
        </mxCell>
        <mxCell id="yM-iLHwna3-0Nd7lgm04-38" value="" style="endArrow=none;html=1;exitX=0.914;exitY=0.233;exitDx=0;exitDy=0;exitPerimeter=0;" edge="1" parent="1" source="yM-iLHwna3-0Nd7lgm04-37" target="yM-iLHwna3-0Nd7lgm04-2">
          <mxGeometry width="50" height="50" relative="1" as="geometry">
            <mxPoint x="770" y="240" as="sourcePoint" />
            <mxPoint x="820" y="190" as="targetPoint" />
          </mxGeometry>
        </mxCell>
        <mxCell id="yM-iLHwna3-0Nd7lgm04-39" value="terima gaji" style="ellipse;whiteSpace=wrap;html=1;" vertex="1" parent="1">
          <mxGeometry x="331" y="690" width="140" height="70" as="geometry" />
        </mxCell>
        <mxCell id="yM-iLHwna3-0Nd7lgm04-40" value="" style="endArrow=none;html=1;" edge="1" parent="1" source="yM-iLHwna3-0Nd7lgm04-26" target="yM-iLHwna3-0Nd7lgm04-39">
          <mxGeometry width="50" height="50" relative="1" as="geometry">
            <mxPoint x="190" y="720" as="sourcePoint" />
            <mxPoint x="240" y="670" as="targetPoint" />
          </mxGeometry>
        </mxCell>
        <mxCell id="yM-iLHwna3-0Nd7lgm04-41" value="" style="endArrow=none;html=1;exitX=1.043;exitY=0.546;exitDx=0;exitDy=0;exitPerimeter=0;" edge="1" parent="1" source="yM-iLHwna3-0Nd7lgm04-43" target="yM-iLHwna3-0Nd7lgm04-2">
          <mxGeometry width="50" height="50" relative="1" as="geometry">
            <mxPoint x="750" y="125" as="sourcePoint" />
            <mxPoint x="800" y="75" as="targetPoint" />
          </mxGeometry>
        </mxCell>
        <mxCell id="yM-iLHwna3-0Nd7lgm04-42" value="cek" style="edgeLabel;html=1;align=center;verticalAlign=middle;resizable=0;points=[];" vertex="1" connectable="0" parent="yM-iLHwna3-0Nd7lgm04-41">
          <mxGeometry x="-0.1166" relative="1" as="geometry">
            <mxPoint as="offset" />
          </mxGeometry>
        </mxCell>
        <mxCell id="yM-iLHwna3-0Nd7lgm04-43" value="bulanan,&lt;br&gt;pause, stop" style="shape=note;whiteSpace=wrap;html=1;backgroundOutline=1;darkOpacity=0.05;fillColor=none;size=12;" vertex="1" parent="1">
          <mxGeometry x="500" y="160" width="70" height="80" as="geometry" />
        </mxCell>
        <mxCell id="yM-iLHwna3-0Nd7lgm04-44" value="" style="endArrow=none;dashed=1;html=1;dashPattern=1 3;strokeWidth=2;" edge="1" parent="1" source="yM-iLHwna3-0Nd7lgm04-7" target="yM-iLHwna3-0Nd7lgm04-43">
          <mxGeometry width="50" height="50" relative="1" as="geometry">
            <mxPoint x="490" y="310" as="sourcePoint" />
            <mxPoint x="540" y="260" as="targetPoint" />
          </mxGeometry>
        </mxCell>
        <mxCell id="yM-iLHwna3-0Nd7lgm04-45" value="laporan bulanan" style="ellipse;whiteSpace=wrap;html=1;" vertex="1" parent="1">
          <mxGeometry x="331" y="770" width="140" height="70" as="geometry" />
        </mxCell>
        <mxCell id="yM-iLHwna3-0Nd7lgm04-46" value="" style="endArrow=none;html=1;" edge="1" parent="1" source="yM-iLHwna3-0Nd7lgm04-45" target="yM-iLHwna3-0Nd7lgm04-3">
          <mxGeometry width="50" height="50" relative="1" as="geometry">
            <mxPoint x="720" y="740" as="sourcePoint" />
            <mxPoint x="770" y="690" as="targetPoint" />
          </mxGeometry>
        </mxCell>
        <mxCell id="yM-iLHwna3-0Nd7lgm04-47" value="" style="whiteSpace=wrap;html=1;fillColor=none;" vertex="1" parent="1">
          <mxGeometry x="80" y="40" width="680" height="840" as="geometry" />
        </mxCell>
      </root>
    </mxGraphModel>
  </diagram>
</mxfile>
